<?xml version="1.0" encoding="UTF-8" standalone="no"?><svg xmlns="http://www.w3.org/2000/svg" xmlns:xlink="http://www.w3.org/1999/xlink" contentStyleType="text/css" height="1060px" preserveAspectRatio="none" style="width:931px;height:1060px;background:#FFFFFF;" version="1.1" viewBox="0 0 931 1060" width="931px" zoomAndPan="magnify"><defs/><g><!--MD5=[c62b478a3ecf7d70ad684c4975b3cc74]
class Project.src.test.Entity--><g id="elem_Project.src.test.Entity"><rect codeLine="2" fill="#F1F1F1" height="707.5313" id="Project.src.test.Entity" rx="2.5" ry="2.5" style="stroke:#181818;stroke-width:0.5;" width="546" x="277" y="346.35"/><ellipse cx="526.75" cy="362.35" fill="#ADD1B2" rx="11" ry="11" style="stroke:#181818;stroke-width:1.0;"/><path d="M529.2231,368.4931 Q528.6421,368.7919 528.0029,368.9413 Q527.3638,369.0907 526.6582,369.0907 Q524.1514,369.0907 522.8315,367.4389 Q521.5117,365.787 521.5117,362.6659 Q521.5117,359.5365 522.8315,357.8847 Q524.1514,356.2328 526.6582,356.2328 Q527.3638,356.2328 528.0112,356.3822 Q528.6587,356.5316 529.2231,356.8305 L529.2231,359.5531 Q528.5923,358.9721 527.9988,358.7023 Q527.4053,358.4325 526.7744,358.4325 Q525.4297,358.4325 524.7449,359.4992 Q524.0601,360.5658 524.0601,362.6659 Q524.0601,364.7577 524.7449,365.8244 Q525.4297,366.891 526.7744,366.891 Q527.4053,366.891 527.9988,366.6212 Q528.5923,366.3515 529.2231,365.7704 Z " fill="#000000"/><text fill="#000000" font-family="sans-serif" font-size="14" lengthAdjust="spacing" textLength="38" x="547.25" y="367.641">Entity</text><line style="stroke:#181818;stroke-width:0.5;" x1="278" x2="822" y1="378.35" y2="378.35"/><text fill="#000000" font-family="sans-serif" font-size="14" lengthAdjust="spacing" textLength="116" x="283" y="395.8852">action_frame_set</text><text fill="#000000" font-family="sans-serif" font-size="14" lengthAdjust="spacing" textLength="103" x="283" y="412.3734">attack_damage</text><text fill="#000000" font-family="sans-serif" font-size="14" lengthAdjust="spacing" textLength="88" x="283" y="428.8617">attack_range</text><text fill="#000000" font-family="sans-serif" font-size="14" lengthAdjust="spacing" textLength="34" x="283" y="445.35">dead</text><text fill="#000000" font-family="sans-serif" font-size="14" lengthAdjust="spacing" textLength="113" x="283" y="461.8383">death_frame_set</text><text fill="#000000" font-family="sans-serif" font-size="14" lengthAdjust="spacing" textLength="77" x="283" y="478.3266">destination</text><text fill="#000000" font-family="sans-serif" font-size="14" lengthAdjust="spacing" textLength="61" x="283" y="494.8148">direction</text><text fill="#000000" font-family="sans-serif" font-size="14" lengthAdjust="spacing" textLength="40" x="283" y="511.3031">doing</text><text fill="#000000" font-family="sans-serif" font-size="14" lengthAdjust="spacing" textLength="101" x="283" y="527.7914">frame_number</text><text fill="#000000" font-family="sans-serif" font-size="14" lengthAdjust="spacing" textLength="44" x="283" y="544.2797">height</text><text fill="#000000" font-family="sans-serif" font-size="14" lengthAdjust="spacing" textLength="18" x="283" y="560.768">hp</text><text fill="#000000" font-family="sans-serif" font-size="14" lengthAdjust="spacing" textLength="99" x="283" y="577.2563">idle_frame_set</text><text fill="#000000" font-family="sans-serif" font-size="14" lengthAdjust="spacing" textLength="42" x="283" y="593.7445">image</text><text fill="#000000" font-family="sans-serif" font-size="14" lengthAdjust="spacing" textLength="107" x="283" y="610.2328">in_combat_with</text><text fill="#000000" font-family="sans-serif" font-size="14" lengthAdjust="spacing" textLength="55" x="283" y="626.7211">location</text><text fill="#000000" font-family="sans-serif" font-size="14" lengthAdjust="spacing" textLength="26" x="283" y="643.2094">rect</text><text fill="#000000" font-family="sans-serif" font-size="14" lengthAdjust="spacing" textLength="56" x="283" y="659.6977">selected</text><text fill="#000000" font-family="sans-serif" font-size="14" lengthAdjust="spacing" textLength="41" x="283" y="676.1859">speed</text><text fill="#000000" font-family="sans-serif" font-size="14" lengthAdjust="spacing" textLength="83" x="283" y="692.6742">sprite_sheet</text><text fill="#000000" font-family="sans-serif" font-size="14" lengthAdjust="spacing" textLength="34" x="283" y="709.1625">team</text><text fill="#000000" font-family="sans-serif" font-size="14" lengthAdjust="spacing" textLength="63" x="283" y="725.6508">unit_type</text><text fill="#000000" font-family="sans-serif" font-size="14" lengthAdjust="spacing" textLength="105" x="283" y="742.1391">walk_frame_set</text><text fill="#000000" font-family="sans-serif" font-size="14" lengthAdjust="spacing" textLength="38" x="283" y="758.6273">width</text><line style="stroke:#181818;stroke-width:0.5;" x1="278" x2="822" y1="765.5805" y2="765.5805"/><text fill="#000000" font-family="sans-serif" font-size="14" lengthAdjust="spacing" textLength="52" x="283" y="783.1156">action()</text><text fill="#000000" font-family="sans-serif" font-size="14" lengthAdjust="spacing" textLength="534" x="283" y="799.6039">add_action_frame_set(spritesheet, start_frame, end_frame, row, width, height)</text><text fill="#000000" font-family="sans-serif" font-size="14" lengthAdjust="spacing" textLength="531" x="283" y="816.0922">add_death_frame_set(spritesheet, start_frame, end_frame, row, width, height)</text><text fill="#000000" font-family="sans-serif" font-size="14" lengthAdjust="spacing" textLength="517" x="283" y="832.5805">add_idle_frame_set(spritesheet, start_frame, end_frame, row, width, height)</text><text fill="#000000" font-family="sans-serif" font-size="14" lengthAdjust="spacing" textLength="523" x="283" y="849.0688">add_walk_frame_set(spritesheet, start_frame, end_frame, row, width, height)</text><text fill="#000000" font-family="sans-serif" font-size="14" lengthAdjust="spacing" textLength="73" x="283" y="865.557">ani_swap()</text><text fill="#000000" font-family="sans-serif" font-size="14" lengthAdjust="spacing" textLength="89" x="283" y="882.0453">attack(entity)</text><text fill="#000000" font-family="sans-serif" font-size="14" lengthAdjust="spacing" textLength="49" x="283" y="898.5336">death()</text><text fill="#000000" font-family="sans-serif" font-size="14" lengthAdjust="spacing" textLength="89" x="283" y="915.0219">draw(screen)</text><text fill="#000000" font-family="sans-serif" font-size="14" lengthAdjust="spacing" textLength="35" x="283" y="931.5102">idle()</text><text fill="#000000" font-family="sans-serif" font-size="14" lengthAdjust="spacing" textLength="92" x="283" y="947.9984">move_to(x, y)</text><text fill="#000000" font-family="sans-serif" font-size="14" lengthAdjust="spacing" textLength="140" x="283" y="964.4867">move_to_aggro(x, y)</text><text fill="#000000" font-family="sans-serif" font-size="14" lengthAdjust="spacing" textLength="150" x="283" y="980.975">update(entities, delta)</text><text fill="#000000" font-family="sans-serif" font-size="14" lengthAdjust="spacing" textLength="134" x="283" y="997.4633">update_animation()</text><text fill="#000000" font-family="sans-serif" font-size="14" lengthAdjust="spacing" textLength="145" x="283" y="1013.9516">update_frame(frame)</text><text fill="#000000" font-family="sans-serif" font-size="14" lengthAdjust="spacing" textLength="41" x="283" y="1030.4398">walk()</text><text fill="#000000" font-family="sans-serif" font-size="14" lengthAdjust="spacing" textLength="89" x="283" y="1046.9281">walk_aggro()</text></g><!--MD5=[81d4a5f14016c0cf96b4519e7a066cf1]
class Project.src.test.Melee--><g id="elem_Project.src.test.Melee"><rect codeLine="44" fill="#F1F1F1" height="179.9063" id="Project.src.test.Melee" rx="2.5" ry="2.5" style="stroke:#181818;stroke-width:0.5;" width="160" x="7" y="48.22"/><ellipse cx="62.75" cy="64.22" fill="#ADD1B2" rx="11" ry="11" style="stroke:#181818;stroke-width:1.0;"/><path d="M65.2231,70.3631 Q64.6421,70.6619 64.0029,70.8113 Q63.3638,70.9607 62.6582,70.9607 Q60.1514,70.9607 58.8315,69.3089 Q57.5117,67.657 57.5117,64.5359 Q57.5117,61.4065 58.8315,59.7547 Q60.1514,58.1028 62.6582,58.1028 Q63.3638,58.1028 64.0112,58.2522 Q64.6587,58.4016 65.2231,58.7005 L65.2231,61.4231 Q64.5923,60.8421 63.9988,60.5723 Q63.4053,60.3025 62.7744,60.3025 Q61.4297,60.3025 60.7449,61.3692 Q60.0601,62.4358 60.0601,64.5359 Q60.0601,66.6277 60.7449,67.6944 Q61.4297,68.761 62.7744,68.761 Q63.4053,68.761 63.9988,68.4912 Q64.5923,68.2215 65.2231,67.6404 Z " fill="#000000"/><text fill="#000000" font-family="sans-serif" font-size="14" lengthAdjust="spacing" textLength="40" x="83.25" y="69.511">Melee</text><line style="stroke:#181818;stroke-width:0.5;" x1="8" x2="166" y1="80.22" y2="80.22"/><text fill="#000000" font-family="sans-serif" font-size="14" lengthAdjust="spacing" textLength="148" x="13" y="97.7552">action_frame_set : list</text><text fill="#000000" font-family="sans-serif" font-size="14" lengthAdjust="spacing" textLength="118" x="13" y="114.2434">attack_range : int</text><text fill="#000000" font-family="sans-serif" font-size="14" lengthAdjust="spacing" textLength="145" x="13" y="130.7317">death_frame_set : list</text><text fill="#000000" font-family="sans-serif" font-size="14" lengthAdjust="spacing" textLength="131" x="13" y="147.22">frame_number : int</text><text fill="#000000" font-family="sans-serif" font-size="14" lengthAdjust="spacing" textLength="74" x="13" y="163.7083">height : int</text><text fill="#000000" font-family="sans-serif" font-size="14" lengthAdjust="spacing" textLength="131" x="13" y="180.1966">idle_frame_set : list</text><text fill="#000000" font-family="sans-serif" font-size="14" lengthAdjust="spacing" textLength="137" x="13" y="196.6848">walk_frame_set : list</text><text fill="#000000" font-family="sans-serif" font-size="14" lengthAdjust="spacing" textLength="68" x="13" y="213.1731">width : int</text><line style="stroke:#181818;stroke-width:0.5;" x1="8" x2="166" y1="220.1263" y2="220.1263"/></g><!--MD5=[e2f4411c777b5b32e84e2c2a898311a1]
class Project.src.test.Projectile--><g id="elem_Project.src.test.Projectile"><rect codeLine="54" fill="#F1F1F1" height="262.3477" id="Project.src.test.Projectile" rx="2.5" ry="2.5" style="stroke:#181818;stroke-width:0.5;" width="162" x="202" y="7"/><ellipse cx="247.25" cy="23" fill="#ADD1B2" rx="11" ry="11" style="stroke:#181818;stroke-width:1.0;"/><path d="M249.7231,29.1431 Q249.1421,29.4419 248.5029,29.5913 Q247.8638,29.7407 247.1582,29.7407 Q244.6514,29.7407 243.3315,28.0889 Q242.0117,26.437 242.0117,23.3159 Q242.0117,20.1865 243.3315,18.5347 Q244.6514,16.8828 247.1582,16.8828 Q247.8638,16.8828 248.5112,17.0322 Q249.1587,17.1816 249.7231,17.4805 L249.7231,20.2031 Q249.0923,19.6221 248.4988,19.3523 Q247.9053,19.0825 247.2744,19.0825 Q245.9297,19.0825 245.2449,20.1492 Q244.5601,21.2158 244.5601,23.3159 Q244.5601,25.4077 245.2449,26.4744 Q245.9297,27.541 247.2744,27.541 Q247.9053,27.541 248.4988,27.2712 Q249.0923,27.0015 249.7231,26.4204 Z " fill="#000000"/><text fill="#000000" font-family="sans-serif" font-size="14" lengthAdjust="spacing" textLength="63" x="267.75" y="28.291">Projectile</text><line style="stroke:#181818;stroke-width:0.5;" x1="203" x2="363" y1="39" y2="39"/><text fill="#000000" font-family="sans-serif" font-size="14" lengthAdjust="spacing" textLength="148" x="208" y="56.5352">action_frame_set : list</text><text fill="#000000" font-family="sans-serif" font-size="14" lengthAdjust="spacing" textLength="145" x="208" y="73.0234">death_frame_set : list</text><text fill="#000000" font-family="sans-serif" font-size="14" lengthAdjust="spacing" textLength="91" x="208" y="89.5117">direction : int</text><text fill="#000000" font-family="sans-serif" font-size="14" lengthAdjust="spacing" textLength="131" x="208" y="106">frame_number : int</text><text fill="#000000" font-family="sans-serif" font-size="14" lengthAdjust="spacing" textLength="74" x="208" y="122.4883">height : int</text><text fill="#000000" font-family="sans-serif" font-size="14" lengthAdjust="spacing" textLength="131" x="208" y="138.9766">idle_frame_set : list</text><text fill="#000000" font-family="sans-serif" font-size="14" lengthAdjust="spacing" textLength="102" x="208" y="155.4648">location : tuple</text><text fill="#000000" font-family="sans-serif" font-size="14" lengthAdjust="spacing" textLength="71" x="208" y="171.9531">speed : int</text><text fill="#000000" font-family="sans-serif" font-size="14" lengthAdjust="spacing" textLength="41" x="208" y="188.4414">target</text><text fill="#000000" font-family="sans-serif" font-size="14" lengthAdjust="spacing" textLength="93" x="208" y="204.9297">unit_type : str</text><text fill="#000000" font-family="sans-serif" font-size="14" lengthAdjust="spacing" textLength="137" x="208" y="221.418">walk_frame_set : list</text><text fill="#000000" font-family="sans-serif" font-size="14" lengthAdjust="spacing" textLength="68" x="208" y="237.9063">width : int</text><line style="stroke:#181818;stroke-width:0.5;" x1="203" x2="363" y1="244.8594" y2="244.8594"/><text fill="#000000" font-family="sans-serif" font-size="14" lengthAdjust="spacing" textLength="150" x="208" y="262.3945">update(entities, delta)</text></g><!--MD5=[c25758acdbc8277345e6ac73b06b6995]
class Project.src.test.Ranged--><g id="elem_Project.src.test.Ranged"><rect codeLine="69" fill="#F1F1F1" height="245.8594" id="Project.src.test.Ranged" rx="2.5" ry="2.5" style="stroke:#181818;stroke-width:0.5;" width="200" x="399" y="15.25"/><ellipse cx="468.75" cy="31.25" fill="#ADD1B2" rx="11" ry="11" style="stroke:#181818;stroke-width:1.0;"/><path d="M471.2231,37.3931 Q470.6421,37.6919 470.0029,37.8413 Q469.3638,37.9907 468.6582,37.9907 Q466.1514,37.9907 464.8315,36.3389 Q463.5117,34.687 463.5117,31.5659 Q463.5117,28.4365 464.8315,26.7847 Q466.1514,25.1328 468.6582,25.1328 Q469.3638,25.1328 470.0112,25.2822 Q470.6587,25.4316 471.2231,25.7305 L471.2231,28.4531 Q470.5923,27.8721 469.9988,27.6023 Q469.4053,27.3325 468.7744,27.3325 Q467.4297,27.3325 466.7449,28.3992 Q466.0601,29.4658 466.0601,31.5659 Q466.0601,33.6577 466.7449,34.7244 Q467.4297,35.791 468.7744,35.791 Q469.4053,35.791 469.9988,35.5212 Q470.5923,35.2515 471.2231,34.6704 Z " fill="#000000"/><text fill="#000000" font-family="sans-serif" font-size="14" lengthAdjust="spacing" textLength="52" x="489.25" y="36.541">Ranged</text><line style="stroke:#181818;stroke-width:0.5;" x1="400" x2="598" y1="47.25" y2="47.25"/><text fill="#000000" font-family="sans-serif" font-size="14" lengthAdjust="spacing" textLength="148" x="405" y="64.7852">action_frame_set : list</text><text fill="#000000" font-family="sans-serif" font-size="14" lengthAdjust="spacing" textLength="118" x="405" y="81.2734">attack_range : int</text><text fill="#000000" font-family="sans-serif" font-size="14" lengthAdjust="spacing" textLength="145" x="405" y="97.7617">death_frame_set : list</text><text fill="#000000" font-family="sans-serif" font-size="14" lengthAdjust="spacing" textLength="131" x="405" y="114.25">frame_number : int</text><text fill="#000000" font-family="sans-serif" font-size="14" lengthAdjust="spacing" textLength="74" x="405" y="130.7383">height : int</text><text fill="#000000" font-family="sans-serif" font-size="14" lengthAdjust="spacing" textLength="131" x="405" y="147.2266">idle_frame_set : list</text><text fill="#000000" font-family="sans-serif" font-size="14" lengthAdjust="spacing" textLength="188" x="405" y="163.7148">in_combat_with : NoneType</text><text fill="#000000" font-family="sans-serif" font-size="14" lengthAdjust="spacing" textLength="60" x="405" y="180.2031">in_range</text><text fill="#000000" font-family="sans-serif" font-size="14" lengthAdjust="spacing" textLength="93" x="405" y="196.6914">unit_type : str</text><text fill="#000000" font-family="sans-serif" font-size="14" lengthAdjust="spacing" textLength="137" x="405" y="213.1797">walk_frame_set : list</text><text fill="#000000" font-family="sans-serif" font-size="14" lengthAdjust="spacing" textLength="68" x="405" y="229.668">width : int</text><line style="stroke:#181818;stroke-width:0.5;" x1="400" x2="598" y1="236.6211" y2="236.6211"/><text fill="#000000" font-family="sans-serif" font-size="14" lengthAdjust="spacing" textLength="89" x="405" y="254.1563">attack(entity)</text></g><!--MD5=[c105a870949ae19b5bcc1e1263c9eabb]
class Project.src.test.Spritesheet--><g id="elem_Project.src.test.Spritesheet"><rect codeLine="83" fill="#F1F1F1" height="80.9766" id="Project.src.test.Spritesheet" rx="2.5" ry="2.5" style="stroke:#181818;stroke-width:0.5;" width="265" x="648.5" y="97.69"/><ellipse cx="738.25" cy="113.69" fill="#ADD1B2" rx="11" ry="11" style="stroke:#181818;stroke-width:1.0;"/><path d="M740.7231,119.8331 Q740.1421,120.1319 739.5029,120.2813 Q738.8638,120.4307 738.1582,120.4307 Q735.6514,120.4307 734.3315,118.7789 Q733.0117,117.127 733.0117,114.0059 Q733.0117,110.8765 734.3315,109.2247 Q735.6514,107.5728 738.1582,107.5728 Q738.8638,107.5728 739.5112,107.7222 Q740.1587,107.8716 740.7231,108.1705 L740.7231,110.8931 Q740.0923,110.3121 739.4988,110.0423 Q738.9053,109.7725 738.2744,109.7725 Q736.9297,109.7725 736.2449,110.8392 Q735.5601,111.9058 735.5601,114.0059 Q735.5601,116.0977 736.2449,117.1644 Q736.9297,118.231 738.2744,118.231 Q738.9053,118.231 739.4988,117.9612 Q740.0923,117.6915 740.7231,117.1104 Z " fill="#000000"/><text fill="#000000" font-family="sans-serif" font-size="14" lengthAdjust="spacing" textLength="77" x="758.75" y="118.981">Spritesheet</text><line style="stroke:#181818;stroke-width:0.5;" x1="649.5" x2="912.5" y1="129.69" y2="129.69"/><text fill="#000000" font-family="sans-serif" font-size="14" lengthAdjust="spacing" textLength="37" x="654.5" y="147.2252">sheet</text><line style="stroke:#181818;stroke-width:0.5;" x1="649.5" x2="912.5" y1="154.1783" y2="154.1783"/><text fill="#000000" font-family="sans-serif" font-size="14" lengthAdjust="spacing" textLength="253" x="654.5" y="171.7134">get_image(frame, row, width, height)</text></g><!--MD5=[311bce1b3dde7373fd02d97686bde3a9]
link Project.src.test.Melee to Project.src.test.Entity--><g id="link_Project.src.test.Melee_Project.src.test.Entity"><path codeLine="87" d="M152.24,228.34 C162.71,242.18 173.55,256.23 184,269.35 C209.28,301.06 235.95,333.76 262.9,366.28 " fill="none" id="Project.src.test.Melee-to-Project.src.test.Entity" style="stroke:#181818;stroke-width:1.0;"/><polygon fill="none" points="268.21,361.73,275.61,381.58,257.44,370.67,268.21,361.73" style="stroke:#181818;stroke-width:1.0;"/></g><!--MD5=[5148aafd70f97152f0608cb10c4938c2]
link Project.src.test.Projectile to Project.src.test.Entity--><g id="link_Project.src.test.Projectile_Project.src.test.Entity"><path codeLine="88" d="M345.26,269.75 C353.85,287.75 362.98,306.91 372.46,326.78 " fill="none" id="Project.src.test.Projectile-to-Project.src.test.Entity" style="stroke:#181818;stroke-width:1.0;"/><polygon fill="none" points="378.69,323.59,380.98,344.65,366.05,329.61,378.69,323.59" style="stroke:#181818;stroke-width:1.0;"/></g><!--MD5=[2fd0b2c6049721d92ea318e92493f06e]
link Project.src.test.Ranged to Project.src.test.Entity--><g id="link_Project.src.test.Ranged_Project.src.test.Entity"><path codeLine="89" d="M509.18,261.18 C510.77,279.67 512.41,298.52 514,316.35 C514.24,319.08 514.49,321.83 514.74,324.58 " fill="none" id="Project.src.test.Ranged-to-Project.src.test.Entity" style="stroke:#181818;stroke-width:1.0;"/><polygon fill="none" points="521.7,323.83,516.52,344.38,507.75,325.09,521.7,323.83" style="stroke:#181818;stroke-width:1.0;"/></g><!--MD5=[794e1f4db15bdd3c8b8c630d7af7450f]
link Project.src.test.Spritesheet to Project.src.test.Entity--><g id="link_Project.src.test.Spritesheet_Project.src.test.Entity"><path codeLine="90" d="M737.42,179.08 C705.66,206.79 660.71,243.28 617,269.35 C587.93,286.69 565.63,271.09 547,299.35 C539.99,309.98 534,321.14 528.92,332.7 " fill="none" id="Project.src.test.Spritesheet-to-Project.src.test.Entity" style="stroke:#181818;stroke-width:1.0;"/><polygon fill="#181818" points="524.14,344.51,530.1005,340.4514,528.6466,333.3884,522.6861,337.447,524.14,344.51" style="stroke:#181818;stroke-width:1.0;"/><text fill="#000000" font-family="sans-serif" font-size="13" lengthAdjust="spacing" textLength="77" x="548" y="312.9184">sprite_sheet</text></g><!--MD5=[794e1f4db15bdd3c8b8c630d7af7450f]
link Project.src.test.Spritesheet to Project.src.test.Entity--><g id="link_Project.src.test.Spritesheet_Project.src.test.Entity"><path codeLine="91" d="M746.6,178.87 C721.25,209.88 687.55,255.02 666,299.35 C660.75,310.15 655.69,321.24 650.82,332.52 " fill="none" id="Project.src.test.Spritesheet-to-Project.src.test.Entity-1" style="stroke:#181818;stroke-width:1.0;"/><polygon fill="#181818" points="645.78,344.46,651.7938,340.4808,650.4337,333.3991,644.4199,337.3783,645.78,344.46" style="stroke:#181818;stroke-width:1.0;"/><text fill="#000000" font-family="sans-serif" font-size="13" lengthAdjust="spacing" textLength="77" x="667" y="312.9184">sprite_sheet</text></g><!--MD5=[794e1f4db15bdd3c8b8c630d7af7450f]
link Project.src.test.Spritesheet to Project.src.test.Entity--><g id="link_Project.src.test.Spritesheet_Project.src.test.Entity"><path codeLine="92" d="M777.26,179.09 C773.03,215.58 764.61,270.65 749,316.35 C747.16,321.73 745.26,327.12 743.3,332.53 " fill="none" id="Project.src.test.Spritesheet-to-Project.src.test.Entity-2" style="stroke:#181818;stroke-width:1.0;"/><polygon fill="#181818" points="738.82,344.57,744.6596,340.3392,743.0002,333.3216,737.1607,337.5524,738.82,344.57" style="stroke:#181818;stroke-width:1.0;"/><text fill="#000000" font-family="sans-serif" font-size="13" lengthAdjust="spacing" textLength="77" x="755" y="312.9184">sprite_sheet</text></g><!--MD5=[794e1f4db15bdd3c8b8c630d7af7450f]
link Project.src.test.Spritesheet to Project.src.test.Entity--><g id="link_Project.src.test.Spritesheet_Project.src.test.Entity"><path codeLine="93" d="M809.81,178.92 C832.18,214.82 856.92,269.11 841,316.35 C837.44,326.92 833.46,337.42 829.11,347.85 " fill="none" id="Project.src.test.Spritesheet-to-Project.src.test.Entity-3" style="stroke:#181818;stroke-width:1.0;"/><polygon fill="#181818" points="824.01,359.62,830.0665,355.7061,828.7831,348.6101,822.7266,352.524,824.01,359.62" style="stroke:#181818;stroke-width:1.0;"/><text fill="#000000" font-family="sans-serif" font-size="13" lengthAdjust="spacing" textLength="77" x="846" y="312.9184">sprite_sheet</text></g><!--MD5=[96a91787c374937013604a856b36c61b]
@startuml classes
set namespaceSeparator none
class "Entity" as Project.src.test.Entity {
  action_frame_set
  attack_damage
  attack_range
  dead
  death_frame_set
  destination
  direction
  doing
  frame_number
  height
  hp
  idle_frame_set
  image
  in_combat_with
  location
  rect
  selected
  speed
  sprite_sheet
  team
  unit_type
  walk_frame_set
  width
  action()
  add_action_frame_set(spritesheet, start_frame, end_frame, row, width, height)
  add_death_frame_set(spritesheet, start_frame, end_frame, row, width, height)
  add_idle_frame_set(spritesheet, start_frame, end_frame, row, width, height)
  add_walk_frame_set(spritesheet, start_frame, end_frame, row, width, height)
  ani_swap()
  attack(entity)
  death()
  draw(screen)
  idle()
  move_to(x, y)
  move_to_aggro(x, y)
  update(entities, delta)
  update_animation()
  update_frame(frame)
  walk()
  walk_aggro()
}
class "Melee" as Project.src.test.Melee {
  action_frame_set : list
  attack_range : int
  death_frame_set : list
  frame_number : int
  height : int
  idle_frame_set : list
  walk_frame_set : list
  width : int
}
class "Projectile" as Project.src.test.Projectile {
  action_frame_set : list
  death_frame_set : list
  direction : int
  frame_number : int
  height : int
  idle_frame_set : list
  location : tuple
  speed : int
  target
  unit_type : str
  walk_frame_set : list
  width : int
  update(entities, delta)
}
class "Ranged" as Project.src.test.Ranged {
  action_frame_set : list
  attack_range : int
  death_frame_set : list
  frame_number : int
  height : int
  idle_frame_set : list
  in_combat_with : NoneType
  in_range
  unit_type : str
  walk_frame_set : list
  width : int
  attack(entity)
}
class "Spritesheet" as Project.src.test.Spritesheet {
  sheet
  get_image(frame, row, width, height)
}
Project.src.test.Melee - -|> Project.src.test.Entity
Project.src.test.Projectile - -|> Project.src.test.Entity
Project.src.test.Ranged - -|> Project.src.test.Entity
Project.src.test.Spritesheet - -* Project.src.test.Entity : sprite_sheet
Project.src.test.Spritesheet - -* Project.src.test.Entity : sprite_sheet
Project.src.test.Spritesheet - -* Project.src.test.Entity : sprite_sheet
Project.src.test.Spritesheet - -* Project.src.test.Entity : sprite_sheet
@enduml

PlantUML version 1.2022.7(Mon Aug 22 13:01:30 EDT 2022)
(GPL source distribution)
Java Runtime: OpenJDK Runtime Environment
JVM: OpenJDK 64-Bit Server VM
Default Encoding: UTF-8
Language: en
Country: US
--></g></svg>