<?xml version="1.0" encoding="UTF-8" standalone="no"?><svg xmlns="http://www.w3.org/2000/svg" xmlns:xlink="http://www.w3.org/1999/xlink" contentStyleType="text/css" height="404px" preserveAspectRatio="none" style="width:707px;height:404px;background:#FFFFFF;" version="1.1" viewBox="0 0 707 404" width="707px" zoomAndPan="magnify"><defs/><g><path d="M8.5,6 L56.5,6 A3.75,3.75 0 0 1 59,8.5 L66,28.4883 L70.5,28.4883 A2.5,2.5 0 0 1 73,30.9883 L73,56.4766 A2.5,2.5 0 0 1 70.5,58.9766 L8.5,58.9766 A2.5,2.5 0 0 1 6,56.4766 L6,8.5 A2.5,2.5 0 0 1 8.5,6 " fill="#F1F1F1" style="stroke:#181818;stroke-width:0.5;"/><line style="stroke:#181818;stroke-width:0.5;" x1="6" x2="66" y1="28.4883" y2="28.4883"/><text fill="#000000" font-family="sans-serif" font-size="14" lengthAdjust="spacing" textLength="47" x="10" y="21.5352">Project</text><path d="M110.5,6 L200.5,6 A3.75,3.75 0 0 1 203,8.5 L210,28.4883 L214.5,28.4883 A2.5,2.5 0 0 1 217,30.9883 L217,56.4766 A2.5,2.5 0 0 1 214.5,58.9766 L110.5,58.9766 A2.5,2.5 0 0 1 108,56.4766 L108,8.5 A2.5,2.5 0 0 1 110.5,6 " fill="#F1F1F1" style="stroke:#181818;stroke-width:0.5;"/><line style="stroke:#181818;stroke-width:0.5;" x1="108" x2="210" y1="28.4883" y2="28.4883"/><text fill="#000000" font-family="sans-serif" font-size="14" lengthAdjust="spacing" textLength="89" x="112" y="21.5352">Project.setup</text><path d="M254.5,6 L326.5,6 A3.75,3.75 0 0 1 329,8.5 L336,28.4883 L340.5,28.4883 A2.5,2.5 0 0 1 343,30.9883 L343,56.4766 A2.5,2.5 0 0 1 340.5,58.9766 L254.5,58.9766 A2.5,2.5 0 0 1 252,56.4766 L252,8.5 A2.5,2.5 0 0 1 254.5,6 " fill="#F1F1F1" style="stroke:#181818;stroke-width:0.5;"/><line style="stroke:#181818;stroke-width:0.5;" x1="252" x2="336" y1="28.4883" y2="28.4883"/><text fill="#000000" font-family="sans-serif" font-size="14" lengthAdjust="spacing" textLength="71" x="256" y="21.5352">Project.src</text><path d="M378.5,231.96 L492.5,231.96 A3.75,3.75 0 0 1 495,234.46 L502,254.4483 L506.5,254.4483 A2.5,2.5 0 0 1 509,256.9483 L509,282.4366 A2.5,2.5 0 0 1 506.5,284.9366 L378.5,284.9366 A2.5,2.5 0 0 1 376,282.4366 L376,234.46 A2.5,2.5 0 0 1 378.5,231.96 " fill="#F1F1F1" style="stroke:#181818;stroke-width:0.5;"/><line style="stroke:#181818;stroke-width:0.5;" x1="376" x2="502" y1="254.4483" y2="254.4483"/><text fill="#000000" font-family="sans-serif" font-size="14" lengthAdjust="spacing" textLength="113" x="380" y="247.4952">Project.src.entity</text><path d="M380.5,6 L490.5,6 A3.75,3.75 0 0 1 493,8.5 L500,28.4883 L504.5,28.4883 A2.5,2.5 0 0 1 507,30.9883 L507,56.4766 A2.5,2.5 0 0 1 504.5,58.9766 L380.5,58.9766 A2.5,2.5 0 0 1 378,56.4766 L378,8.5 A2.5,2.5 0 0 1 380.5,6 " fill="#F1F1F1" style="stroke:#181818;stroke-width:0.5;"/><line style="stroke:#181818;stroke-width:0.5;" x1="378" x2="500" y1="28.4883" y2="28.4883"/><text fill="#000000" font-family="sans-serif" font-size="14" lengthAdjust="spacing" textLength="109" x="382" y="21.5352">Project.src.main</text><path d="M195,118.98 L312,118.98 A3.75,3.75 0 0 1 314.5,121.48 L321.5,141.4683 L326,141.4683 A2.5,2.5 0 0 1 328.5,143.9683 L328.5,169.4566 A2.5,2.5 0 0 1 326,171.9566 L195,171.9566 A2.5,2.5 0 0 1 192.5,169.4566 L192.5,121.48 A2.5,2.5 0 0 1 195,118.98 " fill="#F1F1F1" style="stroke:#181818;stroke-width:0.5;"/><line style="stroke:#181818;stroke-width:0.5;" x1="192.5" x2="321.5" y1="141.4683" y2="141.4683"/><text fill="#000000" font-family="sans-serif" font-size="14" lengthAdjust="spacing" textLength="116" x="196.5" y="134.5152">Project.src.melee</text><path d="M365.5,118.98 L505.5,118.98 A3.75,3.75 0 0 1 508,121.48 L515,141.4683 L519.5,141.4683 A2.5,2.5 0 0 1 522,143.9683 L522,169.4566 A2.5,2.5 0 0 1 519.5,171.9566 L365.5,171.9566 A2.5,2.5 0 0 1 363,169.4566 L363,121.48 A2.5,2.5 0 0 1 365.5,118.98 " fill="#F1F1F1" style="stroke:#181818;stroke-width:0.5;"/><line style="stroke:#181818;stroke-width:0.5;" x1="363" x2="515" y1="141.4683" y2="141.4683"/><text fill="#000000" font-family="sans-serif" font-size="14" lengthAdjust="spacing" textLength="139" x="367" y="134.5152">Project.src.projectile</text><path d="M559,118.98 L684,118.98 A3.75,3.75 0 0 1 686.5,121.48 L693.5,141.4683 L698,141.4683 A2.5,2.5 0 0 1 700.5,143.9683 L700.5,169.4566 A2.5,2.5 0 0 1 698,171.9566 L559,171.9566 A2.5,2.5 0 0 1 556.5,169.4566 L556.5,121.48 A2.5,2.5 0 0 1 559,118.98 " fill="#F1F1F1" style="stroke:#181818;stroke-width:0.5;"/><line style="stroke:#181818;stroke-width:0.5;" x1="556.5" x2="693.5" y1="141.4683" y2="141.4683"/><text fill="#000000" font-family="sans-serif" font-size="14" lengthAdjust="spacing" textLength="124" x="560.5" y="134.5152">Project.src.ranged</text><path d="M359.5,344.93 L511.5,344.93 A3.75,3.75 0 0 1 514,347.43 L521,367.4183 L525.5,367.4183 A2.5,2.5 0 0 1 528,369.9183 L528,395.4066 A2.5,2.5 0 0 1 525.5,397.9066 L359.5,397.9066 A2.5,2.5 0 0 1 357,395.4066 L357,347.43 A2.5,2.5 0 0 1 359.5,344.93 " fill="#F1F1F1" style="stroke:#181818;stroke-width:0.5;"/><line style="stroke:#181818;stroke-width:0.5;" x1="357" x2="521" y1="367.4183" y2="367.4183"/><text fill="#000000" font-family="sans-serif" font-size="14" lengthAdjust="spacing" textLength="151" x="361" y="360.4652">Project.src.spritesheet</text><!--MD5=[44083fb6d3c9b6f2978f600589358945]
link Project.src.entity to Project.src.spritesheet--><g id="link_Project.src.entity_Project.src.spritesheet"><path d="M442.5,285.18 C442.5,300.9 442.5,321.13 442.5,337.94 " fill="none" id="Project.src.entity-to-Project.src.spritesheet" style="stroke:#181818;stroke-width:1.0;"/><polygon fill="#181818" points="442.5,342.92,446.5,333.92,442.5,337.92,438.5,333.92,442.5,342.92" style="stroke:#181818;stroke-width:1.0;"/></g><!--MD5=[7013198997ed28e271cef76f4fa4bb29]
link Project.src.main to Project.src.melee--><g id="link_Project.src.main_Project.src.melee"><path d="M400.29,59.23 C372.81,75.99 336.9,97.89 308.35,115.29 " fill="none" id="Project.src.main-to-Project.src.melee" style="stroke:#181818;stroke-width:1.0;"/><polygon fill="#181818" points="304.41,117.7,314.1745,116.4135,308.6746,115.0899,309.9983,109.59,304.41,117.7" style="stroke:#181818;stroke-width:1.0;"/></g><!--MD5=[9b7524e2536d5ca05c4ebf132520b3b2]
link Project.src.main to Project.src.projectile--><g id="link_Project.src.main_Project.src.projectile"><path d="M442.5,59.23 C442.5,74.95 442.5,95.18 442.5,111.99 " fill="none" id="Project.src.main-to-Project.src.projectile" style="stroke:#181818;stroke-width:1.0;"/><polygon fill="#181818" points="442.5,116.97,446.5,107.97,442.5,111.97,438.5,107.97,442.5,116.97" style="stroke:#181818;stroke-width:1.0;"/></g><!--MD5=[59941eff31fca44835d3f645e08042fa]
link Project.src.main to Project.src.ranged--><g id="link_Project.src.main_Project.src.ranged"><path d="M485.64,59.23 C513.73,75.99 550.43,97.89 579.59,115.29 " fill="none" id="Project.src.main-to-Project.src.ranged" style="stroke:#181818;stroke-width:1.0;"/><polygon fill="#181818" points="583.65,117.71,577.959,109.6718,579.3525,115.1543,573.87,116.5478,583.65,117.71" style="stroke:#181818;stroke-width:1.0;"/></g><!--MD5=[2a36f99b857aff75db4b10aeeb950c9f]
link Project.src.melee to Project.src.entity--><g id="link_Project.src.melee_Project.src.entity"><path d="M302.71,172.21 C330.19,188.97 366.1,210.86 394.65,228.27 " fill="none" id="Project.src.melee-to-Project.src.entity" style="stroke:#181818;stroke-width:1.0;"/><polygon fill="#181818" points="398.59,230.67,393.0139,222.5517,394.3293,228.0535,388.8275,229.3689,398.59,230.67" style="stroke:#181818;stroke-width:1.0;"/></g><!--MD5=[fb73cc40bd1fab3b3090c4a60636b311]
link Project.src.projectile to Project.src.entity--><g id="link_Project.src.projectile_Project.src.entity"><path d="M442.5,172.21 C442.5,187.92 442.5,208.16 442.5,224.97 " fill="none" id="Project.src.projectile-to-Project.src.entity" style="stroke:#181818;stroke-width:1.0;"/><polygon fill="#181818" points="442.5,229.95,446.5,220.95,442.5,224.95,438.5,220.95,442.5,229.95" style="stroke:#181818;stroke-width:1.0;"/></g><!--MD5=[87805a351603ccecb1a5b244e12fb2eb]
link Project.src.ranged to Project.src.entity--><g id="link_Project.src.ranged_Project.src.entity"><path d="M585.36,172.21 C557.27,188.97 520.57,210.86 491.41,228.27 " fill="none" id="Project.src.ranged-to-Project.src.entity" style="stroke:#181818;stroke-width:1.0;"/><polygon fill="#181818" points="487.35,230.69,497.13,229.5278,491.6475,228.1343,493.041,222.6518,487.35,230.69" style="stroke:#181818;stroke-width:1.0;"/></g><!--MD5=[e7f2d9c15312f050f30684e88b324d81]
@startuml packages
set namespaceSeparator none
package "Project" as Project {
}
package "Project.setup" as Project.setup {
}
package "Project.src" as Project.src {
}
package "Project.src.entity" as Project.src.entity {
}
package "Project.src.main" as Project.src.main {
}
package "Project.src.melee" as Project.src.melee {
}
package "Project.src.projectile" as Project.src.projectile {
}
package "Project.src.ranged" as Project.src.ranged {
}
package "Project.src.spritesheet" as Project.src.spritesheet {
}
Project.src.entity - -> Project.src.spritesheet
Project.src.main - -> Project.src.melee
Project.src.main - -> Project.src.projectile
Project.src.main - -> Project.src.ranged
Project.src.melee - -> Project.src.entity
Project.src.projectile - -> Project.src.entity
Project.src.ranged - -> Project.src.entity
@enduml

PlantUML version 1.2022.7(Mon Aug 22 13:01:30 EDT 2022)
(GPL source distribution)
Java Runtime: OpenJDK Runtime Environment
JVM: OpenJDK 64-Bit Server VM
Default Encoding: UTF-8
Language: en
Country: US
--></g></svg>